<svg width="15" height="15" viewBox="0 0 15 15" fill="none" xmlns="http://www.w3.org/2000/svg">
<path d="M14.865 13.8313L10.3 9.26626C11.0084 8.35044 11.3916 7.23071 11.3916 6.05298C11.3916 4.64321 10.8414 3.32134 9.84648 2.32466C8.85156 1.32798 7.52617 0.779541 6.11816 0.779541C4.71016 0.779541 3.38477 1.32974 2.38984 2.32466C1.39316 3.31958 0.844727 4.64321 0.844727 6.05298C0.844727 7.46099 1.39492 8.78638 2.38984 9.7813C3.38477 10.778 4.7084 11.3264 6.11816 11.3264C7.2959 11.3264 8.41387 10.9432 9.32969 10.2366L13.8947 14.7999C13.9081 14.8132 13.924 14.8239 13.9415 14.8311C13.959 14.8384 13.9777 14.8421 13.9967 14.8421C14.0156 14.8421 14.0344 14.8384 14.0519 14.8311C14.0694 14.8239 14.0852 14.8132 14.0986 14.7999L14.865 14.0352C14.8784 14.0218 14.8891 14.0059 14.8963 13.9884C14.9036 13.9709 14.9073 13.9522 14.9073 13.9333C14.9073 13.9143 14.9036 13.8956 14.8963 13.8781C14.8891 13.8606 14.8784 13.8447 14.865 13.8313ZM8.90254 8.83735C8.15723 9.58091 7.16934 9.99048 6.11816 9.99048C5.06699 9.99048 4.0791 9.58091 3.33379 8.83735C2.59023 8.09204 2.18066 7.10415 2.18066 6.05298C2.18066 5.00181 2.59023 4.01216 3.33379 3.2686C4.0791 2.52505 5.06699 2.11548 6.11816 2.11548C7.16934 2.11548 8.15898 2.52329 8.90254 3.2686C9.64609 4.01392 10.0557 5.00181 10.0557 6.05298C10.0557 7.10415 9.64609 8.0938 8.90254 8.83735Z" fill="#FF4D4F"/>
</svg>
